<?xml version="1.0" encoding="UTF-8" standalone="no"?>
<!-- Created with Inkscape (http://www.inkscape.org/) -->

<svg
   xmlns:dc="http://purl.org/dc/elements/1.1/"
   xmlns:cc="http://creativecommons.org/ns#"
   xmlns:rdf="http://www.w3.org/1999/02/22-rdf-syntax-ns#"
   xmlns:svg="http://www.w3.org/2000/svg"
   xmlns="http://www.w3.org/2000/svg"
   xmlns:sodipodi="http://sodipodi.sourceforge.net/DTD/sodipodi-0.dtd"
   xmlns:inkscape="http://www.inkscape.org/namespaces/inkscape"
   width="120"
   height="60"
   viewBox="0 0 120 60.000001"
   id="svg2"
   version="1.1"
   inkscape:version="0.91 r13725"
   sodipodi:docname="hand.svg">
  <defs
     id="defs4" />
  <sodipodi:namedview
     id="base"
     pagecolor="#ffffff"
     bordercolor="#666666"
     borderopacity="1.0"
     inkscape:pageopacity="0.0"
     inkscape:pageshadow="2"
     inkscape:zoom="5.6"
     inkscape:cx="82.008175"
     inkscape:cy="21.585701"
     inkscape:document-units="px"
     inkscape:current-layer="layer1"
     showgrid="true"
     showguides="true"
     units="px"
     inkscape:window-width="1858"
     inkscape:window-height="1058"
     inkscape:window-x="-8"
     inkscape:window-y="-8"
     inkscape:window-maximized="1">
    <inkscape:grid
       type="xygrid"
       id="grid3336"
       spacingx="1"
       dotted="true" />
  </sodipodi:namedview>
  <metadata
     id="metadata7">
    <rdf:RDF>
      <cc:Work
         rdf:about="">
        <dc:format>image/svg+xml</dc:format>
        <dc:type
           rdf:resource="http://purl.org/dc/dcmitype/StillImage" />
        <dc:title></dc:title>
      </cc:Work>
    </rdf:RDF>
  </metadata>
  <g
     inkscape:label="Layer 1"
     inkscape:groupmode="layer"
     id="layer1"
     transform="translate(0,-992.36214)">
    <path
       style="fill:#000080;fill-rule:evenodd;stroke:#000000;stroke-width:1px;stroke-linecap:butt;stroke-linejoin:miter;stroke-opacity:1"
       d="m 124.46429,1047.3621 -9.46429,0 0,-40 9.28571,0 -0.28571,40"
       id="path3344"
       inkscape:connector-curvature="0"
       sodipodi:nodetypes="cccc" />
    <path
       style="fill:none;fill-rule:evenodd;stroke:#000000;stroke-width:1px;stroke-linecap:butt;stroke-linejoin:miter;stroke-opacity:1"
       d="m 115,1012.3621 -10,0 0,30 10,0"
       id="path3346"
       inkscape:connector-curvature="0" />
    <path
       style="color:#000000;font-style:normal;font-variant:normal;font-weight:normal;font-stretch:normal;font-size:medium;line-height:normal;font-family:sans-serif;text-indent:0;text-align:start;text-decoration:none;text-decoration-line:none;text-decoration-style:solid;text-decoration-color:#000000;letter-spacing:normal;word-spacing:normal;text-transform:none;direction:ltr;block-progression:tb;writing-mode:lr-tb;baseline-shift:baseline;text-anchor:start;white-space:normal;clip-rule:nonzero;display:inline;overflow:visible;visibility:visible;opacity:1;isolation:auto;mix-blend-mode:normal;color-interpolation:sRGB;color-interpolation-filters:linearRGB;solid-color:#000000;solid-opacity:1;fill:#000000;fill-opacity:1;fill-rule:evenodd;stroke:none;stroke-width:1px;stroke-linecap:butt;stroke-linejoin:miter;stroke-miterlimit:4;stroke-dasharray:none;stroke-dashoffset:0;stroke-opacity:1;color-rendering:auto;image-rendering:auto;shape-rendering:auto;text-rendering:auto;enable-background:accumulate"
       d="M 74.238281 27.324219 C 74.372037 27.34723 74.565267 27.367798 74.697266 27.390625 C 75.411194 27.514072 75.452369 27.522178 76.111328 27.638672 C 77.96683 26.827692 79.543939 26.060311 80.328125 25.376953 C 81.402645 24.440553 83.497583 23.8852 86.025391 23.6875 C 88.553198 23.4898 91.501235 23.619519 94.300781 23.886719 C 97.100328 24.153619 99.753224 24.554572 101.70312 24.888672 C 102.67808 25.055772 103.47615 25.206053 104.03125 25.314453 C 104.58635 25.422853 104.89453 25.490234 104.89453 25.490234 L 105 25.5 C 105 25.5 104.78634 24.443684 104.22461 24.333984 C 103.66288 24.224284 102.85477 24.072897 101.87109 23.904297 C 99.903739 23.567197 97.230801 23.162778 94.396484 22.892578 C 91.562167 22.622478 88.569125 22.484353 85.947266 22.689453 C 83.325406 22.894453 81.062031 23.411547 79.671875 24.623047 C 78.954519 25.248169 76.743044 26.280307 74.238281 27.324219 z "
       id="path3462"
       transform="translate(0,992.36214)" />
    <path
       style="color:#000000;font-style:normal;font-variant:normal;font-weight:normal;font-stretch:normal;font-size:medium;line-height:normal;font-family:sans-serif;text-indent:0;text-align:start;text-decoration:none;text-decoration-line:none;text-decoration-style:solid;text-decoration-color:#000000;letter-spacing:normal;word-spacing:normal;text-transform:none;direction:ltr;block-progression:tb;writing-mode:lr-tb;baseline-shift:baseline;text-anchor:start;white-space:normal;clip-rule:nonzero;display:inline;overflow:visible;visibility:visible;opacity:1;isolation:auto;mix-blend-mode:normal;color-interpolation:sRGB;color-interpolation-filters:linearRGB;solid-color:#000000;solid-opacity:1;fill:#000000;fill-opacity:1;fill-rule:evenodd;stroke:none;stroke-width:1px;stroke-linecap:butt;stroke-linejoin:miter;stroke-miterlimit:4;stroke-dasharray:none;stroke-dashoffset:0;stroke-opacity:1;color-rendering:auto;image-rendering:auto;shape-rendering:auto;text-rendering:auto;enable-background:accumulate"
       d="M 72.425781 28.066406 C 73.041117 28.170076 73.862131 28.262537 74.445312 28.363281 C 75.063807 28.111261 75.562272 27.878647 76.111328 27.638672 C 75.452369 27.522178 75.411194 27.514072 74.697266 27.390625 C 74.565267 27.367798 74.372037 27.34723 74.238281 27.324219 C 73.942266 27.447589 73.906296 27.517842 73.595703 27.642578 C 73.251285 27.780898 72.786591 27.925885 72.425781 28.066406 z "
       id="path3460"
       transform="translate(0,992.36214)" />
    <path
       style="color:#000000;font-style:normal;font-variant:normal;font-weight:normal;font-stretch:normal;font-size:medium;line-height:normal;font-family:sans-serif;text-indent:0;text-align:start;text-decoration:none;text-decoration-line:none;text-decoration-style:solid;text-decoration-color:#000000;letter-spacing:normal;word-spacing:normal;text-transform:none;direction:ltr;block-progression:tb;writing-mode:lr-tb;baseline-shift:baseline;text-anchor:start;white-space:normal;clip-rule:nonzero;display:inline;overflow:visible;visibility:visible;opacity:1;isolation:auto;mix-blend-mode:normal;color-interpolation:sRGB;color-interpolation-filters:linearRGB;solid-color:#000000;solid-opacity:1;fill:#000000;fill-opacity:1;fill-rule:evenodd;stroke:none;stroke-width:1px;stroke-linecap:butt;stroke-linejoin:miter;stroke-miterlimit:4;stroke-dasharray:none;stroke-dashoffset:0;stroke-opacity:1;color-rendering:auto;image-rendering:auto;shape-rendering:auto;text-rendering:auto;enable-background:accumulate"
       d="M 35.601562 25.771484 C 35.270545 25.950861 34.994618 26.165314 34.726562 26.386719 C 35.02079 26.583854 35.28633 26.774677 35.580078 26.970703 C 35.835645 26.789998 36.026993 26.592065 36.371094 26.433594 C 36.406627 26.417229 36.483106 26.416437 36.519531 26.400391 C 36.204498 26.190345 35.917806 25.983372 35.601562 25.771484 z "
       id="path3456"
       transform="translate(0,992.36214)" />
    <path
       style="color:#000000;font-style:normal;font-variant:normal;font-weight:normal;font-stretch:normal;font-size:medium;line-height:normal;font-family:sans-serif;text-indent:0;text-align:start;text-decoration:none;text-decoration-line:none;text-decoration-style:solid;text-decoration-color:#000000;letter-spacing:normal;word-spacing:normal;text-transform:none;direction:ltr;block-progression:tb;writing-mode:lr-tb;baseline-shift:baseline;text-anchor:start;white-space:normal;clip-rule:nonzero;display:inline;overflow:visible;visibility:visible;opacity:1;isolation:auto;mix-blend-mode:normal;color-interpolation:sRGB;color-interpolation-filters:linearRGB;solid-color:#000000;solid-opacity:1;fill:#000000;fill-opacity:1;fill-rule:evenodd;stroke:none;stroke-width:1px;stroke-linecap:butt;stroke-linejoin:miter;stroke-miterlimit:4;stroke-dasharray:none;stroke-dashoffset:0;stroke-opacity:1;color-rendering:auto;image-rendering:auto;shape-rendering:auto;text-rendering:auto;enable-background:accumulate"
       d="M 13.71875 11.302734 C 12.607478 11.203734 11.554537 11.384747 10.759766 11.998047 C 9.9649937 12.611647 9.5 13.6423 9.5 15 C 9.5 15.875 10.030357 16.883537 10.888672 18.210938 C 11.746987 19.538338 12.967634 21.133944 14.460938 22.902344 C 17.447541 26.439044 21.521772 30.667287 25.910156 34.742188 C 30.298541 38.817088 34.998494 42.736637 39.248047 45.648438 C 43.497599 48.560138 47.25 50.5 50 50.5 C 55 50.5 68.757126 50.5009 81.275391 49.875 C 87.534523 49.5621 93.481977 49.093566 97.892578 48.384766 C 100.09788 48.030366 101.91624 47.618787 103.22656 47.117188 C 103.88172 46.866387 104.41074 46.596325 104.81055 46.265625 C 105.21035 45.934825 105.5 45.5 105.5 45 L 104.5 45 C 104.5 45.125 104.4381 45.277494 104.17383 45.496094 C 103.90957 45.714694 103.46203 45.955894 102.86719 46.183594 C 101.67751 46.638994 99.902121 47.049737 97.732422 47.398438 C 93.393023 48.095838 87.465477 48.564853 81.224609 48.876953 C 68.742874 49.501053 55 49.5 50 49.5 C 47.75 49.5 44.002401 47.691766 39.814453 44.822266 C 35.626506 41.952766 30.951459 38.059866 26.589844 34.009766 C 22.228228 29.959666 18.177459 25.750359 15.226562 22.255859 C 13.751115 20.508559 12.549888 18.938269 11.728516 17.667969 C 10.907143 16.397669 10.5 15.375 10.5 15 C 10.5 13.8578 10.84329 13.196563 11.371094 12.789062 C 11.898897 12.381562 12.682118 12.214528 13.628906 12.298828 C 15.522483 12.467228 17.962058 13.669116 19.646484 15.353516 C 21.993348 17.70046 28.400772 22.148379 34.726562 26.386719 C 34.994618 26.165314 35.270545 25.950861 35.601562 25.771484 C 29.165974 21.459557 22.539414 16.832392 20.353516 14.646484 C 18.502422 12.795384 15.941294 11.500434 13.71875 11.302734 z "
       id="path3362"
       transform="translate(0,992.36214)" />
    <path
       style="color:#000000;font-style:normal;font-variant:normal;font-weight:normal;font-stretch:normal;font-size:medium;line-height:normal;font-family:sans-serif;text-indent:0;text-align:start;text-decoration:none;text-decoration-line:none;text-decoration-style:solid;text-decoration-color:#000000;letter-spacing:normal;word-spacing:normal;text-transform:none;direction:ltr;block-progression:tb;writing-mode:lr-tb;baseline-shift:baseline;text-anchor:start;white-space:normal;clip-rule:nonzero;display:inline;overflow:visible;visibility:visible;opacity:1;isolation:auto;mix-blend-mode:normal;color-interpolation:sRGB;color-interpolation-filters:linearRGB;solid-color:#000000;solid-opacity:1;fill:#000000;fill-opacity:1;fill-rule:evenodd;stroke:none;stroke-width:1px;stroke-linecap:butt;stroke-linejoin:miter;stroke-miterlimit:4;stroke-dasharray:none;stroke-dashoffset:0;stroke-opacity:1;color-rendering:auto;image-rendering:auto;shape-rendering:auto;text-rendering:auto;enable-background:accumulate"
       d="m 47.047433,1017.4453 c -2.769302,-0.1237 -2.767265,-1.0093 -5.012278,-0.8129 -2.245013,0.1965 -4.505832,0.3084 -5.939174,0.9685 -1.433342,0.6601 -2.613398,2.737 -2.789899,4.0929 -0.253474,1.9472 0.732763,3.5705 2.232422,4.7949 1.499658,1.2244 3.526131,2.1242 5.566406,2.8047 4.060581,1.3544 8.182168,1.8177 8.222656,1.8223 9.72e-4,10e-5 9.82e-4,-2e-4 0.002,0 l 0.02344,0 c 15.543498,2.521 11.646994,3.2464 30.739119,7.0754 l -0.06613,-1.0463 C 62,1033.3621 65.014186,1032.6461 49.487772,1030.1255 l -0.01172,0 -0.01172,0 c 0,0 -4.092027,-0.4615 -8.042969,-1.7793 -1.975471,-0.6589 -3.908992,-1.5359 -5.25,-2.6308 -1.341008,-1.0949 -2.075953,-2.3338 -1.873047,-3.8926 0.12391,-0.9519 0.959759,-2.5567 2.215681,-3.1351 1.255921,-0.5784 2.892828,-0.8683 5.073382,-1.0591 4.361109,-0.3817 11.159403,3.0931 17.083705,3.752 5.924303,0.6595 10.980414,-0.6955 15.820592,0.1415 4.840178,0.837 8.440314,1.5399 9.652344,1.6914 l 0.125,-0.9922 c -1.067729,-0.1334 -4.756998,-0.8448 -9.607422,-1.6835 -4.850425,-0.8388 -10.547427,0.3352 -16.504185,-0.3279 -3.236405,-0.1991 -8.268982,-2.588 -11.10998,-2.7646 z"
       id="path3364"
       inkscape:connector-curvature="0"
       sodipodi:nodetypes="ccssscccccccccsssscccccccc" />
    <path
       style="fill:none;fill-rule:evenodd;stroke:#000000;stroke-width:1px;stroke-linecap:butt;stroke-linejoin:miter;stroke-opacity:1"
       d="m 45.75,1027.2014 c 0.303571,-2.9107 -0.138064,1.8197 0.464286,-6.7678 0,0 -9.410715,-2.5179 -9.410715,0.4821 0,3 -3.053571,4.2857 8.946429,6.2857 z"
       id="path3472"
       inkscape:connector-curvature="0"
       sodipodi:nodetypes="ccsc" />
    <path
       style="fill:#ffffff"
       d="m 105.51033,35.030757 0,-14.464285 4.46428,0 4.46429,0 0,14.464285 0,14.464286 -4.46429,0 -4.46428,0 0,-14.464286 z"
       id="path3478"
       inkscape:connector-curvature="0"
       transform="translate(0,992.36214)" />
    <path
       style="fill:#ffe6d5"
       d="M 49.249246,49.404071 C 47.809601,49.204976 45.238338,48.112662 42.776032,46.654144 37.124346,43.306435 29.360677,36.8914 21.981154,29.471565 16.36294,23.822659 12.251092,18.865857 10.968098,16.195407 c -0.346026,-0.720227 -0.37905,-0.849209 -0.373722,-1.45968 0.0094,-1.07373 0.423676,-1.77398 1.288799,-2.178296 0.578348,-0.270292 1.998573,-0.2598 2.989451,0.02208 1.695772,0.482412 3.321129,1.45824 4.867692,2.922453 2.102471,1.990523 7.48737,5.942359 13.855616,10.168273 l 1.043115,0.692203 -0.350177,0.51301 c -1.587131,2.325147 -1.379794,4.688797 0.584057,6.658289 0.393582,0.394712 1.022203,0.926175 1.396935,1.18103 2.390294,1.625626 6.635427,3.05217 11.350649,3.814295 4.355896,0.704047 5.50226,0.903422 7.709252,1.340791 2.996807,0.59389 4.732003,1.025606 8.931386,2.222128 4.723131,1.345753 7.809977,2.103395 12.934524,3.174684 1.424107,0.29771 2.659598,0.557436 2.745536,0.577171 0.136144,0.03126 0.15625,-0.03691 0.15625,-0.529786 l 0,-0.565668 -0.513393,-0.104126 C 75.637639,43.843857 69.343258,42.311391 65.142104,41.12814 59.70494,39.596769 55.870712,38.749613 50.543889,37.902727 47.054587,37.34798 46.320798,37.217846 45.052818,36.92891 39.41023,35.64313 35.809953,33.748992 34.686005,31.474839 34.358964,30.813115 34.338532,30.723855 34.338532,29.95684 c 0,-0.783737 0.01507,-0.845352 0.393756,-1.609567 0.690961,-1.394416 1.560268,-2.044633 3.332296,-2.492463 2.234561,-0.564721 4.745344,-0.690459 6.586448,-0.329843 1.420813,0.278294 2.92522,0.680018 5.86719,1.566725 6.042616,1.821238 7.678417,2.114123 11.797434,2.112293 1.195455,-5.36e-4 3.345008,-0.06638 4.776786,-0.146334 1.655551,-0.09245 3.269557,-0.128477 4.43359,-0.09897 1.996049,0.0506 1.642728,-8.3e-5 8.4375,1.210419 1.915179,0.341193 3.647936,0.647115 3.850572,0.679828 l 0.368429,0.05948 0.06304,-0.504571 c 0.03467,-0.277515 0.04618,-0.521434 0.02557,-0.542043 -0.02061,-0.02061 -0.254949,-0.07578 -0.520757,-0.122607 -4.848705,-0.854172 -8.70155,-1.54198 -8.716419,-1.556055 -0.01037,-0.0098 0.250794,-0.132343 0.580357,-0.272295 1.598097,-0.678644 3.872107,-1.858821 4.572419,-2.373017 0.911795,-0.669477 1.613232,-1.004887 2.707456,-1.294642 1.477023,-0.391121 2.471177,-0.500371 5.027737,-0.552509 3.544418,-0.07229 6.869345,0.185135 11.729092,0.90808 1.084258,0.161297 4.434248,0.747725 4.665178,0.816658 0.14758,0.04405 0.15625,0.590758 0.15625,9.85001 0,9.511172 -0.005,9.809827 -0.17038,10.019981 -0.35656,0.453281 -1.5827,0.978515 -3.28499,1.40717 -5.001082,1.259322 -14.809935,2.090786 -29.580343,2.50743 -7.223959,0.203773 -21.256402,0.332839 -22.187501,0.204073 z M 46.337196,34.31162 c 0.190411,-2.139639 0.448423,-6.584173 0.385542,-6.641379 -0.157177,-0.142989 -3.217725,-0.77361 -4.750277,-0.978787 -1.233516,-0.165143 -3.313484,-0.150974 -3.950918,0.02691 -1.211816,0.338178 -1.663583,0.833265 -1.765557,1.934853 -0.03466,0.374396 -0.135176,1.102596 -0.223373,1.618221 -0.150913,0.882272 -0.151585,0.967366 -0.01141,1.444472 0.445435,1.516145 2.453536,2.342321 8.317333,3.421928 0.883929,0.162744 1.672441,0.29956 1.752249,0.304035 0.12185,0.0068 0.161344,-0.174317 0.246415,-1.130256 z"
       id="path3484"
       inkscape:connector-curvature="0"
       transform="translate(0,992.36214)" />
    <path
       style="fill:#f9f9f9"
       d="m 44.829604,34.136814 c -1.239763,-0.215948 -3.896419,-0.791525 -4.642858,-1.005898 -1.946956,-0.559153 -3.03347,-1.168059 -3.166709,-1.774691 -0.03034,-0.138144 0.0269,-0.706922 0.1272,-1.26395 0.100302,-0.557028 0.182367,-1.161048 0.182367,-1.342265 0,-0.79966 0.713527,-1.106546 2.544642,-1.094443 0.638393,0.0042 1.502233,0.053 1.919643,0.108411 1.002017,0.133007 3.600355,0.629263 3.737035,0.713736 0.08364,0.05169 0.07594,0.592106 -0.03453,2.425653 -0.183228,3.040975 -0.209847,3.299346 -0.33839,3.284487 -0.05785,-0.0067 -0.205629,-0.02966 -0.328396,-0.05104 z"
       id="path3486"
       inkscape:connector-curvature="0"
       transform="translate(0,992.36214)" />
  </g>
</svg>
